<?xml version="1.0" encoding="UTF-8"?>
<svg xmlns="http://www.w3.org/2000/svg" xmlns:xlink="http://www.w3.org/1999/xlink" width="96pt" height="96pt" viewBox="0 0 96 96" version="1.1">
<g id="surface7566884">
<path style=" stroke:none;fill-rule:nonzero;fill:rgb(0%,48.235294%,100%);fill-opacity:1;" d="M 48 96 C 21.492188 96 0 74.507812 0 48 C 0 21.492188 21.492188 0 48 0 C 74.507812 0 96 21.492188 96 48 C 96 74.507812 74.507812 96 48 96 Z M 48 96 "/>
<path style=" stroke:none;fill-rule:nonzero;fill:rgb(84.313725%,84.313725%,84.313725%);fill-opacity:1;" d="M 27.199219 64.898438 L 47.003906 27.765625 C 47.421875 26.984375 48.550781 27 48.945312 27.792969 L 55.800781 41.5 Z M 27.199219 64.898438 "/>
<path style=" stroke:none;fill-rule:nonzero;fill:rgb(96.078431%,96.078431%,96.078431%);fill-opacity:1;" d="M 27.199219 64.890625 L 34.410156 20.429688 C 34.597656 19.265625 36.160156 19.015625 36.707031 20.058594 L 50.601562 46.691406 Z M 27.199219 64.890625 "/>
<path style=" stroke:none;fill-rule:nonzero;fill:rgb(84.313725%,84.313725%,84.313725%);fill-opacity:1;" d="M 27.210938 64.882812 L 27.46875 64.679688 L 50.257812 46.035156 L 43.832031 33.714844 Z M 27.210938 64.882812 "/>
<path style=" stroke:none;fill-rule:nonzero;fill:rgb(96.078431%,96.078431%,96.078431%);fill-opacity:1;" d="M 27.199219 64.898438 L 61.867188 31.472656 C 62.59375 30.773438 63.804688 31.1875 63.953125 32.183594 L 68.800781 64.898438 L 49.300781 76.265625 C 48.507812 76.710938 47.542969 76.710938 46.75 76.265625 Z M 27.199219 64.898438 "/>
</g>
</svg>
